<?xml version="1.0" standalone="no"?>
<!DOCTYPE svg PUBLIC "-//W3C//DTD SVG 20010904//EN"
 "http://www.w3.org/TR/2001/REC-SVG-20010904/DTD/svg10.dtd">
<svg version="1.0" xmlns="http://www.w3.org/2000/svg"
 width="500.000000pt" height="500.000000pt" viewBox="0 0 500.000000 500.000000"
 preserveAspectRatio="xMidYMid meet">

<g transform="translate(0.000000,500.000000) scale(0.100000,-0.100000)"
fill="#000000" stroke="none">
<path d="M3100 4857 c-179 -61 -326 -229 -366 -419 -34 -157 6 -372 106 -572
64 -129 367 -617 387 -624 35 -11 371 601 427 780 63 200 79 431 38 564 -43
140 -153 218 -307 218 -99 0 -156 -26 -231 -105 -98 -105 -141 -217 -131 -342
6 -75 44 -169 90 -222 73 -87 213 -114 280 -55 51 45 80 119 81 210 1 65 -3
82 -26 122 -16 25 -43 55 -61 67 -39 24 -106 36 -126 22 -26 -17 -4 -38 44
-43 55 -7 98 -43 116 -96 16 -48 6 -149 -20 -200 -78 -153 -290 -44 -330 171
-27 150 67 335 205 403 48 23 63 26 127 22 115 -8 192 -60 238 -163 18 -40 24
-74 27 -165 8 -228 -43 -410 -202 -710 -110 -208 -192 -351 -223 -388 l-18
-22 -153 245 c-236 379 -289 507 -299 726 -4 91 -2 127 12 175 50 175 181 314
343 364 41 13 57 23 57 36 0 26 -13 26 -85 1z"/>
<path d="M2340 4509 c-432 -51 -819 -228 -1163 -534 -81 -73 -107 -102 -107
-120 0 -14 5 -25 11 -25 6 0 50 36 97 81 161 152 305 255 487 347 104 53 285
126 292 118 3 -2 7 -23 10 -45 9 -65 -18 -120 -97 -197 -76 -74 -135 -172
-149 -250 -14 -72 5 -174 60 -324 62 -168 79 -236 79 -325 0 -82 -12 -130 -43
-176 -32 -47 -68 -65 -203 -100 -136 -35 -240 -81 -310 -138 -27 -21 -113 -99
-192 -174 -78 -74 -157 -142 -175 -151 -29 -14 -33 -14 -45 1 -17 23 -15 116
3 187 8 31 42 115 74 184 76 165 92 213 98 294 9 106 -20 150 -104 164 -48 7
-155 -12 -202 -36 -50 -25 -96 -76 -121 -132 -34 -77 -90 -313 -105 -447 -48
-406 19 -804 195 -1159 117 -236 231 -392 416 -572 310 -300 668 -479 1109
-557 139 -24 508 -24 650 0 674 116 1228 528 1525 1132 133 271 195 523 207
840 21 568 -190 1114 -585 1513 -108 109 -233 212 -256 212 -33 0 -15 -39 37
-77 144 -109 321 -303 433 -474 198 -301 305 -634 329 -1021 l7 -107 -33 16
c-29 14 -35 14 -58 2 -35 -19 -40 -63 -10 -79 20 -11 46 -10 79 4 29 12 2
-228 -46 -418 -24 -95 -28 -102 -106 -200 -122 -151 -212 -241 -319 -317 -70
-49 -106 -82 -130 -121 -31 -49 -34 -59 -34 -133 0 -64 5 -89 23 -124 l23 -44
-38 -39 c-166 -173 -467 -351 -744 -442 -497 -164 -1027 -131 -1494 93 -184
88 -347 197 -488 324 l-47 43 15 38 c28 67 37 140 25 208 -16 85 -39 127 -121
214 -38 42 -76 89 -85 106 -25 49 -13 98 43 174 26 36 60 84 75 106 107 160
-37 313 -307 325 -70 4 -120 0 -165 -10 -36 -9 -68 -13 -72 -9 -4 4 -12 73
-19 154 -19 248 13 519 91 761 25 79 39 106 70 137 45 45 116 70 197 70 45 0
58 -4 80 -26 23 -23 25 -31 20 -82 -8 -72 -30 -137 -100 -287 -71 -155 -87
-211 -87 -307 0 -104 17 -138 71 -138 41 0 108 50 260 196 205 197 263 232
476 284 170 41 229 97 254 239 18 98 -1 201 -73 404 -54 152 -61 181 -62 252
-1 112 34 187 138 288 91 89 108 124 105 220 l-2 72 44 12 c98 29 256 55 406
66 128 10 158 15 158 27 0 12 -19 15 -100 16 -55 1 -134 -2 -175 -7z m-1377
-2399 c46 -14 79 -33 106 -58 72 -69 68 -122 -20 -237 -79 -104 -91 -129 -92
-184 -1 -61 21 -100 106 -191 81 -87 108 -139 115 -227 5 -63 -11 -148 -31
-160 -19 -11 -194 203 -284 347 -112 181 -233 487 -258 652 -7 45 -6 48 20 58
89 34 228 34 338 0z m3443 -505 c-83 -177 -201 -354 -321 -483 l-59 -64 -20
39 c-37 70 -23 173 33 237 9 10 59 49 111 86 90 64 183 153 260 248 18 23 35
40 38 38 2 -3 -17 -48 -42 -101z"/>
<path d="M1327 3342 c-22 -24 -21 -45 1 -65 26 -23 55 -21 80 6 26 28 27 40 6
61 -21 22 -67 20 -87 -2z"/>
<path d="M1171 3293 c-6 -20 -22 -48 -37 -64 -22 -22 -24 -30 -15 -48 15 -28
46 -43 89 -43 49 0 92 47 92 98 0 45 -47 94 -91 94 -24 0 -30 -5 -38 -37z"/>
<path d="M1346 3224 c-23 -22 -20 -40 10 -63 32 -25 57 -27 78 -5 21 21 20 40
-4 64 -24 24 -63 26 -84 4z"/>
<path d="M1281 3118 c-17 -47 37 -100 80 -78 25 14 25 61 1 83 -28 25 -71 22
-81 -5z"/>
<path d="M3065 3108 c-16 -12 -65 -55 -107 -97 l-78 -75 -47 46 c-59 57 -122
87 -186 88 -87 0 -137 -43 -137 -118 0 -90 69 -160 160 -164 22 -1 40 -3 40
-4 0 -2 -5 -14 -11 -27 -23 -51 29 -87 75 -54 19 14 25 59 13 87 -6 13 35 46
85 68 5 2 27 -12 49 -32 65 -55 122 -70 253 -64 167 8 301 -17 316 -58 8 -19
17 -24 43 -24 46 0 53 -11 17 -26 -32 -14 -41 -49 -18 -72 19 -19 76 -15 95 8
16 19 17 18 40 -12 40 -54 65 -137 66 -213 1 -59 -4 -81 -31 -139 -43 -92
-127 -173 -238 -228 -79 -39 -85 -40 -102 -25 -10 10 -33 17 -51 17 -27 0 -35
-5 -44 -30 -6 -16 -18 -32 -26 -35 -7 -3 -104 -17 -215 -31 -316 -41 -463 -87
-584 -183 -28 -23 -95 -95 -146 -160 -102 -128 -135 -159 -211 -192 -55 -24
-124 -22 -154 5 -44 40 -31 148 28 236 17 25 69 90 116 145 163 188 193 292
181 616 -7 202 4 317 39 403 34 84 13 119 -28 48 -45 -76 -50 -123 -52 -432
-2 -271 -4 -300 -23 -360 -30 -91 -67 -149 -172 -270 -106 -123 -152 -207
-158 -290 -8 -109 39 -160 147 -160 108 0 203 65 321 219 87 114 168 187 253
226 130 60 182 71 597 125 91 12 172 26 180 31 8 5 24 13 35 16 11 4 55 24 98
46 110 55 197 138 245 235 35 72 37 81 37 172 0 86 -3 101 -32 163 -18 37 -55
92 -85 123 -29 31 -57 70 -63 87 -10 30 -13 32 -58 30 -42 -3 -47 0 -47 18 0
57 -44 76 -83 37 -22 -22 -30 -23 -192 -23 -142 0 -176 3 -205 18 -37 18 -90
63 -90 75 0 14 140 152 180 177 22 14 40 32 40 40 0 22 -40 18 -75 -7z m-334
-103 c38 -20 111 -95 106 -109 -2 -6 -27 -23 -56 -38 -88 -46 -170 -33 -211
35 -28 45 -25 74 11 109 27 28 34 30 75 24 24 -3 58 -13 75 -21z"/>
<path d="M1176 3088 c-9 -12 -16 -28 -16 -34 0 -20 41 -64 60 -64 41 0 57 64
25 100 -24 26 -50 25 -69 -2z"/>
<path d="M3937 3032 c-17 -19 -22 -48 -11 -76 10 -26 61 -20 80 10 36 54 -26
114 -69 66z"/>
<path d="M2106 3001 c-41 -45 24 -100 73 -63 30 22 38 47 21 67 -18 21 -74 19
-94 -4z"/>
<path d="M1950 2950 c-6 -22 -20 -44 -30 -50 -32 -17 -27 -66 10 -85 71 -37
150 5 150 80 0 48 -44 95 -89 95 -27 0 -31 -4 -41 -40z"/>
<path d="M4048 2969 c-50 -29 -41 -89 12 -89 32 0 70 30 70 54 0 36 -47 56
-82 35z"/>
<path d="M3863 2898 c-27 -13 -31 -59 -9 -78 8 -6 16 -30 18 -53 3 -40 4 -42
39 -45 51 -4 99 36 99 85 0 38 -15 71 -39 90 -20 15 -78 15 -108 1z"/>
<path d="M2120 2880 c-24 -45 41 -95 86 -65 13 8 24 24 24 35 0 44 -89 69
-110 30z"/>
<path d="M1605 2836 c-19 -29 -10 -54 23 -67 46 -18 101 41 72 76 -20 24 -77
19 -95 -9z"/>
<path d="M4068 2849 c-21 -12 -24 -49 -6 -67 28 -28 108 -3 108 35 0 33 -65
54 -102 32z"/>
<path d="M1451 2794 c-6 -20 -20 -47 -32 -60 -42 -44 -2 -94 76 -94 45 0 85
46 85 100 0 30 -6 43 -31 64 -17 15 -43 26 -59 26 -25 0 -31 -5 -39 -36z"/>
<path d="M2072 2798 c-18 -18 -14 -63 7 -82 11 -10 31 -16 48 -14 23 2 29 8
31 34 2 25 -3 37 -24 53 -30 24 -45 26 -62 9z"/>
<path d="M1955 2746 c-20 -30 -6 -72 31 -88 23 -11 29 -10 46 12 13 16 17 32
13 49 -12 52 -64 67 -90 27z"/>
<path d="M4011 2736 c-32 -38 19 -96 72 -82 32 8 40 31 24 64 -15 32 -75 43
-96 18z"/>
<path d="M1620 2721 c-14 -27 -3 -49 32 -67 27 -14 32 -14 54 1 13 8 24 24 24
34 0 46 -88 72 -110 32z"/>
<path d="M2795 2685 c-29 -28 -31 -38 -9 -59 20 -20 53 -20 82 0 26 18 28 46
6 68 -22 23 -51 20 -79 -9z"/>
<path d="M3333 2698 c-26 -13 -30 -45 -8 -74 8 -10 15 -33 15 -49 0 -17 5 -36
12 -43 38 -38 128 14 128 74 0 41 -22 89 -45 98 -25 9 -77 6 -102 -6z"/>
<path d="M2605 2667 c-14 -11 -16 -21 -11 -43 4 -16 8 -51 9 -79 l2 -50 46 -3
c38 -2 50 1 72 24 29 29 35 74 16 117 -20 43 -95 62 -134 34z"/>
<path d="M1572 2638 c-18 -18 -14 -63 6 -81 26 -23 69 -22 82 3 19 36 -22 89
-70 90 -4 0 -11 -5 -18 -12z"/>
<path d="M4367 2632 c-21 -23 -22 -65 -1 -82 38 -32 104 35 78 78 -16 24 -57
27 -77 4z"/>
<path d="M1462 2598 c-18 -18 -14 -73 6 -91 25 -23 48 -21 66 5 21 30 20 54
-4 78 -23 23 -50 26 -68 8z"/>
<path d="M2796 2574 c-21 -21 -20 -40 4 -64 35 -35 100 -19 100 25 0 45 -71
72 -104 39z"/>
<path d="M4474 2572 c-26 -17 -34 -48 -18 -70 20 -28 46 -28 81 2 24 21 26 26
15 50 -8 19 -19 26 -39 26 -16 0 -33 -4 -39 -8z"/>
<path d="M3480 2535 c-31 -37 20 -95 74 -81 58 14 34 96 -28 96 -18 0 -39 -7
-46 -15z"/>
<path d="M4298 2505 c-31 -17 -36 -48 -13 -79 8 -11 15 -34 15 -52 0 -46 21
-60 70 -45 48 14 70 43 70 93 0 73 -79 119 -142 83z"/>
<path d="M2036 2494 c-42 -41 4 -101 59 -76 29 13 43 56 25 77 -16 20 -64 19
-84 -1z"/>
<path d="M3890 2480 c-26 -26 -26 -76 -1 -90 54 -29 109 51 65 94 -21 21 -40
20 -64 -4z"/>
<path d="M2721 2471 c-13 -24 0 -65 24 -75 57 -21 97 12 73 62 -17 36 -81 44
-97 13z"/>
<path d="M1886 2434 c-3 -9 -6 -28 -6 -44 0 -15 -7 -33 -15 -40 -25 -21 -19
-65 10 -78 33 -15 86 -15 106 1 34 26 49 88 33 132 -15 38 -116 61 -128 29z"/>
<path d="M4001 2416 c-53 -29 -44 -86 13 -86 58 0 87 54 44 84 -27 19 -26 19
-57 2z"/>
<path d="M2083 2390 c-49 -20 -14 -90 44 -90 27 0 56 40 47 64 -4 10 -18 22
-31 27 -29 11 -31 11 -60 -1z"/>
<path d="M2563 2336 c-24 -21 -26 -27 -18 -52 13 -37 55 -44 84 -15 25 25 27
54 5 75 -21 22 -38 20 -71 -8z"/>
<path d="M3820 2347 c-30 -15 -38 -58 -16 -77 10 -7 16 -28 16 -52 0 -45 25
-61 75 -47 70 20 89 106 36 160 -32 32 -69 37 -111 16z"/>
<path d="M4458 2353 c-27 -7 -34 -50 -13 -73 26 -29 53 -34 80 -16 32 21 32
40 0 71 -24 25 -33 27 -67 18z"/>
<path d="M4016 2297 c-25 -19 -17 -58 17 -77 24 -13 30 -13 54 0 35 20 40 43
14 69 -24 24 -59 27 -85 8z"/>
<path d="M2030 2274 c-31 -36 39 -112 79 -87 23 14 26 61 5 84 -21 23 -67 25
-84 3z"/>
<path d="M3202 2274 c-24 -17 -30 -62 -10 -82 31 -31 88 1 88 49 0 47 -37 62
-78 33z"/>
<path d="M2644 2250 c-44 -18 -37 -74 11 -86 56 -14 103 60 56 86 -23 12 -38
12 -67 0z"/>
<path d="M2450 2240 c-11 -7 -15 -30 -16 -90 -2 -78 -1 -82 23 -91 76 -29 154
55 123 132 -20 47 -91 74 -130 49z"/>
<path d="M1924 2203 c-14 -54 43 -104 82 -73 17 15 19 71 2 88 -7 7 -27 12
-45 12 -27 0 -34 -5 -39 -27z"/>
<path d="M3302 2204 c-17 -12 -22 -24 -20 -47 3 -29 7 -32 39 -35 48 -4 77 26
63 66 -11 33 -48 40 -82 16z"/>
<path d="M3966 2184 c-33 -33 -3 -84 48 -84 41 0 59 19 50 54 -11 44 -67 61
-98 30z"/>
<path d="M3122 2134 c-26 -18 -28 -42 -7 -70 8 -10 15 -31 15 -46 0 -44 10
-58 42 -58 36 0 83 24 92 45 17 46 -5 126 -39 139 -30 11 -80 6 -103 -10z"/>
<path d="M2619 2119 c-25 -47 39 -97 90 -69 25 13 28 52 5 74 -23 24 -81 21
-95 -5z"/>
<path d="M3328 2089 c-21 -12 -24 -49 -6 -67 7 -7 28 -12 48 -12 39 0 60 14
60 41 0 41 -60 63 -102 38z"/>
<path d="M2547 2043 c-9 -9 -9 -55 1 -69 13 -19 48 -33 70 -27 56 14 28 103
-32 103 -18 0 -36 -3 -39 -7z"/>
<path d="M2897 1120 c-69 -27 -107 -57 -252 -206 -143 -146 -142 -145 -318
-178 -134 -26 -215 -81 -220 -153 -3 -37 23 -38 41 -1 24 50 80 86 161 104
174 38 198 46 248 80 29 20 89 78 134 129 119 136 198 191 289 202 103 12 188
-47 210 -144 23 -103 74 -127 209 -98 87 19 120 16 150 -16 12 -13 26 -19 35
-16 22 9 20 21 -8 54 -23 26 -29 28 -98 27 -40 0 -102 -4 -138 -9 -77 -9 -90
1 -109 80 -17 67 -53 112 -115 141 -63 30 -150 31 -219 4z"/>
</g>
</svg>
